<svg xmlns="http://www.w3.org/2000/svg" viewBox="0 0 562 35.66"><defs><style>.cls-1{fill:#231f20;}</style></defs><title>10</title><g id="Layer_2" data-name="Layer 2"><g id="Layer_2-2" data-name="Layer 2"><path class="cls-1" d="M293.3,13.06c.29.14.41.32.36.53a7.27,7.27,0,0,1-2.16,4.65,5.79,5.79,0,0,1-4.69,1.42,1.84,1.84,0,0,1-.75-.16c-.74,1.38-1.46,2.87-2.18,4.47a39.9,39.9,0,0,1-2.4,4.59,22,22,0,0,1-3,3.94A10.16,10.16,0,0,1,274.37,35a13.54,13.54,0,0,1-1.78.42,15.34,15.34,0,0,1-2.12.21c-.25,0-.39-.14-.41-.42s.14-.24.35-.29a8.11,8.11,0,0,1,.88-.16c.39,0,.83-.13,1.33-.24a13.74,13.74,0,0,0,1.68-.47,6.32,6.32,0,0,0,2.72-1.9,13.8,13.8,0,0,0,1.84-3.09c.53-1.22,1.09-2.59,1.67-4.12a52.25,52.25,0,0,1,2.24-5,18.51,18.51,0,0,1-5,3.67,8.57,8.57,0,0,1-4.76.92,4.74,4.74,0,0,1-1.78-.55,6,6,0,0,1-1.47-1.11,5,5,0,0,1-1-1.5,4.24,4.24,0,0,1-.33-1.8,4.69,4.69,0,0,1,.81-2.4,10.15,10.15,0,0,1,2-2.19A23.78,23.78,0,0,1,274.2,13c1.09-.67,2.21-1.34,3.35-2a12.81,12.81,0,0,1-.4-3.59,9.89,9.89,0,0,1,.51-3.17,8,8,0,0,1,1.26-2.38A5.14,5.14,0,0,1,280.68.39a3.67,3.67,0,0,1,2-.37,4,4,0,0,1,1.46.53,3.61,3.61,0,0,1,1.14,1,11.65,11.65,0,0,1,1.17,2.32,4.77,4.77,0,0,1,.27,1.75A4.85,4.85,0,0,1,286.05,8a8,8,0,0,1-1.67,1.9,14.13,14.13,0,0,1-2.4,1.61c-.92.49-1.86,1-2.85,1.42a9,9,0,0,0,1.93,3,9.74,9.74,0,0,0,2.59,1.9l1.83-2.11c.19-.32.38-.62.59-.92s.43-.61.69-.93a.53.53,0,0,1,.41-.16l2.23.21a.68.68,0,0,1,.48.43.35.35,0,0,1-.19.47A4.69,4.69,0,0,0,288,16.31a20,20,0,0,0-1.44,2.46,5.36,5.36,0,0,0,4.24-1.17,6.34,6.34,0,0,0,2-4.12A.48.48,0,0,1,293.3,13.06ZM273.09,23.73a8.5,8.5,0,0,0,1.48,0,7.45,7.45,0,0,0,2.19-.58,14.61,14.61,0,0,0,2.86-1.61,23.56,23.56,0,0,0,3.45-3.06,13.4,13.4,0,0,1-2.71-2.11,9.92,9.92,0,0,1-2-3.07l-.67.27c-1,.46-2,.91-3,1.37a17.73,17.73,0,0,0-2.57,1.48,8,8,0,0,0-1.79,1.66,3.22,3.22,0,0,0-.69,2,2.51,2.51,0,0,0,.17,1.35,3.21,3.21,0,0,0,.77,1.08,4.54,4.54,0,0,0,1.17.79A6.67,6.67,0,0,0,273.09,23.73ZM282.65.92a2.91,2.91,0,0,0-2,.52,5.08,5.08,0,0,0-1.43,1.62,8.54,8.54,0,0,0-.85,2.19A10,10,0,0,0,278,7.46a10.77,10.77,0,0,0,.34,3c.91-.53,1.77-1.06,2.59-1.61a21.52,21.52,0,0,0,2.19-1.64,8.79,8.79,0,0,0,1.53-1.63,3.2,3.2,0,0,0,.61-1.67A3.71,3.71,0,0,0,284.53,2,2.63,2.63,0,0,0,282.65.92Z"/><rect class="cls-1" x="331.27" y="14.5" width="227.16" height="2"/><path class="cls-1" d="M331.46,19.26a3.76,3.76,0,1,1,3.76-3.76A3.76,3.76,0,0,1,331.46,19.26Z"/><path class="cls-1" d="M558.24,19.26a3.76,3.76,0,1,0-3.76-3.76A3.76,3.76,0,0,0,558.24,19.26Z"/><rect class="cls-1" x="3.57" y="14.5" width="227.16" height="2"/><path class="cls-1" d="M3.76,19.26A3.76,3.76,0,1,1,7.52,15.5,3.76,3.76,0,0,1,3.76,19.26Z"/><path class="cls-1" d="M230.54,19.26a3.76,3.76,0,1,0-3.76-3.76A3.76,3.76,0,0,0,230.54,19.26Z"/></g></g></svg>